<svg width="40" height="40" viewBox="0 0 40 40" fill="none" xmlns="http://www.w3.org/2000/svg">
<path d="M13.8286 26.6469L26.1636 14.3119L13.8286 26.6469Z" fill="#2A569E"/>
<path d="M13.8286 26.6469L26.1636 14.3119" stroke="#2A569E" stroke-width="1.5" stroke-linecap="round" stroke-linejoin="round"/>
<path d="M14.8565 16.3677C15.4242 16.3677 15.8844 15.9075 15.8844 15.3398C15.8844 14.7721 15.4242 14.3119 14.8565 14.3119C14.2888 14.3119 13.8286 14.7721 13.8286 15.3398C13.8286 15.9075 14.2888 16.3677 14.8565 16.3677Z" fill="#2A569E" stroke="#2A569E" stroke-width="2" stroke-linecap="round" stroke-linejoin="round"/>
<path d="M25.1357 26.6469C25.7034 26.6469 26.1636 26.1867 26.1636 25.619C26.1636 25.0513 25.7034 24.5911 25.1357 24.5911C24.568 24.5911 24.1078 25.0513 24.1078 25.619C24.1078 26.1867 24.568 26.6469 25.1357 26.6469Z" fill="#2A569E" stroke="#2A569E" stroke-width="2" stroke-linecap="round" stroke-linejoin="round"/>
<path d="M5.60525 10.6114C5.60525 9.41186 6.08176 8.26145 6.92996 7.41326C7.77816 6.56506 8.92857 6.08854 10.1281 6.08854H12.1839C13.3782 6.08786 14.5237 5.61488 15.3705 4.7728L16.8096 3.33371C17.2299 2.91103 17.7296 2.5756 18.28 2.34672C18.8304 2.11783 19.4206 2 20.0167 2C20.6128 2 21.203 2.11783 21.7534 2.34672C22.3038 2.5756 22.8035 2.91103 23.2238 3.33371L24.6629 4.7728C25.5097 5.61488 26.6552 6.08786 27.8495 6.08854H29.9053C31.1048 6.08854 32.2553 6.56506 33.1035 7.41326C33.9517 8.26145 34.4282 9.41186 34.4282 10.6114V12.6672C34.4288 13.8615 34.9018 15.007 35.7439 15.8538L37.183 17.2929C37.6057 17.7132 37.9411 18.2129 38.17 18.7633C38.3989 19.3137 38.5167 19.9039 38.5167 20.5C38.5167 21.0961 38.3989 21.6863 38.17 22.2367C37.9411 22.7871 37.6057 23.2868 37.183 23.7071L35.7439 25.1462C34.9018 25.993 34.4288 27.1385 34.4282 28.3328V30.3886C34.4282 31.5881 33.9517 32.7385 33.1035 33.5867C32.2553 34.4349 31.1048 34.9115 29.9053 34.9115H27.8495C26.6552 34.9121 25.5097 35.3851 24.6629 36.2272L23.2238 37.6663C22.8035 38.089 22.3038 38.4244 21.7534 38.6533C21.203 38.8822 20.6128 39 20.0167 39C19.4206 39 18.8304 38.8822 18.28 38.6533C17.7296 38.4244 17.2299 38.089 16.8096 37.6663L15.3705 36.2272C14.5237 35.3851 13.3782 34.9121 12.1839 34.9115H10.1281C8.92857 34.9115 7.77816 34.4349 6.92996 33.5867C6.08176 32.7385 5.60525 31.5881 5.60525 30.3886V28.3328C5.60457 27.1385 5.13159 25.993 4.28951 25.1462L2.85042 23.7071C2.42774 23.2868 2.09231 22.7871 1.86343 22.2367C1.63454 21.6863 1.51671 21.0961 1.51671 20.5C1.51671 19.9039 1.63454 19.3137 1.86343 18.7633C2.09231 18.2129 2.42774 17.7132 2.85042 17.2929L4.28951 15.8538C5.13159 15.007 5.60457 13.8615 5.60525 12.6672V10.6114" stroke="#2A569E" stroke-width="1.5" stroke-linecap="round" stroke-linejoin="round"/>
</svg>
