<svg width="40" height="32" viewBox="0 0 40 32" fill="none" xmlns="http://www.w3.org/2000/svg">
<path d="M39.39 15.5888L35.265 5.96375C35.1597 5.71522 34.9837 5.50317 34.7587 5.35402C34.5338 5.20487 34.2699 5.12522 34 5.125H29.875V2.375C29.875 2.01033 29.7301 1.66059 29.4723 1.40273C29.2144 1.14487 28.8647 1 28.5 1H2.375C2.01033 1 1.66059 1.14487 1.40273 1.40273C1.14487 1.66059 1 2.01033 1 2.375V25.75C1 26.1147 1.14487 26.4644 1.40273 26.7223C1.66059 26.9801 2.01033 27.125 2.375 27.125H5.3175C5.63414 28.2901 6.32538 29.3187 7.28457 30.052C8.24376 30.7853 9.41761 31.1826 10.625 31.1826C11.8324 31.1826 13.0062 30.7853 13.9654 30.052C14.9246 29.3187 15.6159 28.2901 15.9325 27.125H24.5675C24.8841 28.2901 25.5754 29.3187 26.5346 30.052C27.4938 30.7853 28.6676 31.1826 29.875 31.1826C31.0824 31.1826 32.2562 30.7853 33.2154 30.052C34.1746 29.3187 34.8659 28.2901 35.1825 27.125H38.125C38.4897 27.125 38.8394 26.9801 39.0973 26.7223C39.3551 26.4644 39.5 26.1147 39.5 25.75V16.125C39.4996 15.9407 39.4622 15.7583 39.39 15.5888ZM29.875 7.875H33.0925L36.035 14.75H29.875V7.875ZM10.625 28.5C10.0811 28.5 9.54942 28.3387 9.09718 28.0365C8.64495 27.7344 8.29247 27.3049 8.08433 26.8024C7.87619 26.2999 7.82173 25.747 7.92784 25.2135C8.03395 24.6801 8.29586 24.1901 8.68046 23.8055C9.06505 23.4209 9.55505 23.159 10.0885 23.0528C10.6219 22.9467 11.1749 23.0012 11.6774 23.2093C12.1799 23.4175 12.6094 23.7699 12.9115 24.2222C13.2137 24.6744 13.375 25.2061 13.375 25.75C13.375 26.4793 13.0853 27.1788 12.5695 27.6945C12.0538 28.2103 11.3543 28.5 10.625 28.5ZM24.5675 24.375H15.9325C15.6159 23.2099 14.9246 22.1813 13.9654 21.448C13.0062 20.7147 11.8324 20.3174 10.625 20.3174C9.41761 20.3174 8.24376 20.7147 7.28457 21.448C6.32538 22.1813 5.63414 23.2099 5.3175 24.375H3.75V3.75H27.125V21.02C26.4989 21.3834 25.9507 21.8668 25.5118 22.4425C25.0729 23.0183 24.752 23.675 24.5675 24.375ZM29.875 28.5C29.3311 28.5 28.7994 28.3387 28.3472 28.0365C27.8949 27.7344 27.5425 27.3049 27.3343 26.8024C27.1262 26.2999 27.0717 25.747 27.1778 25.2135C27.2839 24.6801 27.5459 24.1901 27.9305 23.8055C28.3151 23.4209 28.8051 23.159 29.3385 23.0528C29.872 22.9467 30.4249 23.0012 30.9274 23.2093C31.4299 23.4175 31.8594 23.7699 32.1615 24.2222C32.4637 24.6744 32.625 25.2061 32.625 25.75C32.625 26.4793 32.3353 27.1788 31.8195 27.6945C31.3038 28.2103 30.6043 28.5 29.875 28.5ZM36.75 24.375H35.1825C34.8784 23.1973 34.1926 22.1537 33.2323 21.4073C32.2719 20.6609 31.0913 20.254 29.875 20.25V17.5H36.75V24.375Z" fill="#2A569E" stroke="white" stroke-width="1.3"/>
</svg>
