<svg width="40" height="40" viewBox="0 0 40 40" fill="none" xmlns="http://www.w3.org/2000/svg">
<path fill-rule="evenodd" clip-rule="evenodd" d="M18.0645 21.9355H1.29032L1.29032 38.7097H18.0645V21.9355ZM1.29032 20.6452C0.577697 20.6452 0 21.2229 0 21.9355V38.7097C0 39.4223 0.577697 40 1.29032 40H18.0645C18.7771 40 19.3548 39.4223 19.3548 38.7097V21.9355C19.3548 21.2229 18.7771 20.6452 18.0645 20.6452H1.29032Z" fill="#2A569E"/>
<path fill-rule="evenodd" clip-rule="evenodd" d="M12.9035 29.6775V20.6452H6.45184V29.6775L9.67765 25.914L12.9035 29.6775ZM7.74217 26.1894L9.67765 23.9313L11.6131 26.1894V21.9355H7.74217V26.1894Z" fill="#2A569E"/>
<path fill-rule="evenodd" clip-rule="evenodd" d="M38.7097 21.9355H21.9355L21.9355 38.7097H38.7097V21.9355ZM21.9355 20.6452C21.2229 20.6452 20.6452 21.2229 20.6452 21.9355V38.7097C20.6452 39.4223 21.2229 40 21.9355 40H38.7097C39.4223 40 40 39.4223 40 38.7097V21.9355C40 21.2229 39.4223 20.6452 38.7097 20.6452H21.9355Z" fill="#2A569E"/>
<path fill-rule="evenodd" clip-rule="evenodd" d="M33.5487 29.6775V20.6452H27.097V29.6775L30.3229 25.914L33.5487 29.6775ZM28.3874 26.1894L30.3229 23.9313L32.2583 26.1894V21.9355H28.3874V26.1894Z" fill="#2A569E"/>
<path fill-rule="evenodd" clip-rule="evenodd" d="M28.387 1.29032H11.6128L11.6128 18.0645H28.387V1.29032ZM11.6128 0C10.9001 0 10.3224 0.577697 10.3224 1.29032V18.0645C10.3224 18.7771 10.9001 19.3548 11.6128 19.3548H28.387C29.0996 19.3548 29.6773 18.7771 29.6773 18.0645V1.29032C29.6773 0.577697 29.0996 0 28.387 0H11.6128Z" fill="#2A569E"/>
<path fill-rule="evenodd" clip-rule="evenodd" d="M23.2259 9.03226V0H16.7743V9.03226L20.0001 5.26882L23.2259 9.03226ZM18.0646 5.54418L20.0001 3.28612L21.9356 5.54418V1.29032H18.0646V5.54418Z" fill="#2A569E"/>
</svg>
