<svg width="40" height="40" viewBox="0 0 40 40" fill="none" xmlns="http://www.w3.org/2000/svg">
<path d="M14.95 38C14.4593 38 13.9888 37.8051 13.6419 37.4581C13.2949 37.1112 13.1 36.6407 13.1 36.15V30.6H5.7C4.7187 30.6 3.77759 30.2102 3.0837 29.5163C2.38982 28.8224 2 27.8813 2 26.9V4.7C2 2.6465 3.665 1 5.7 1H35.3C36.2813 1 37.2224 1.38982 37.9163 2.0837C38.6102 2.77759 39 3.7187 39 4.7V26.9C39 27.8813 38.6102 28.8224 37.9163 29.5163C37.2224 30.2102 36.2813 30.6 35.3 30.6H24.015L17.17 37.4635C16.8 37.815 16.3375 38 15.875 38H14.95ZM16.8 26.9V32.598L22.498 26.9H35.3V4.7H5.7V26.9H16.8ZM29.75 17.65H26.05V13.95H29.75V17.65ZM22.35 17.65H18.65V13.95H22.35V17.65ZM14.95 17.65H11.25V13.95H14.95V17.65Z" fill="#2A569E" stroke="white" stroke-width="2"/>
</svg>
